<svg xmlns="http://www.w3.org/2000/svg" style="display: none;">
  <!-- 
  zTheme SVG Icon Sprite System
  =============================
  Reusable SVG icons stored as <symbol> elements within a hidden <svg> container.
  Icons can be referenced anywhere using <svg><use xlink:href="#icon-name"></use></svg>
  
  The `style="display: none;"` ensures icons are hidden until explicitly used.
  All icons use `fill="currentColor"` to inherit text color from parent.
  
  Usage:
  <svg class="zIcon" width="24" height="24">
    <use xlink:href="#icon-house"></use>
  </svg>
  -->

  <!-- Navigation Icons -->
  <symbol id="icon-house" viewBox="0 0 16 16" fill="currentColor">
    <path
      d="M8.707 1.5a1 1 0 0 0-1.414 0L.646 8.146a.5.5 0 0 0 .708.708L8 2.207l6.646 6.647a.5.5 0 0 0 .708-.708L13 5.793V2.5a.5.5 0 0 0-.5-.5h-1a.5.5 0 0 0-.5.5v1.293z" />
    <path d="m8 3.293 6 6V13.5a1.5 1.5 0 0 1-1.5 1.5h-9A1.5 1.5 0 0 1 2 13.5V9.293z" />
  </symbol>

  <symbol id="icon-apps" viewBox="0 0 16 16" fill="currentColor">
    <path
      d="M1 2.5A1.5 1.5 0 0 1 2.5 1h3A1.5 1.5 0 0 1 7 2.5v3A1.5 1.5 0 0 1 5.5 7h-3A1.5 1.5 0 0 1 1 5.5zm8 0A1.5 1.5 0 0 1 10.5 1h3A1.5 1.5 0 0 1 15 2.5v3A1.5 1.5 0 0 1 13.5 7h-3A1.5 1.5 0 0 1 9 5.5zm-8 8A1.5 1.5 0 0 1 2.5 9h3A1.5 1.5 0 0 1 7 10.5v3A1.5 1.5 0 0 1 5.5 15h-3A1.5 1.5 0 0 1 1 13.5zm8 0A1.5 1.5 0 0 1 10.5 9h3a1.5 1.5 0 0 1 1.5 1.5v3a1.5 1.5 0 0 1-1.5 1.5h-3A1.5 1.5 0 0 1 9 13.5z" />
  </symbol>

  <symbol id="icon-hamburger-fill" viewBox="0 0 16 16" fill="currentColor">
    <path fill-rule="evenodd"
      d="M2.5 12a.5.5 0 0 1 .5-.5h10a.5.5 0 0 1 0 1H3a.5.5 0 0 1-.5-.5m0-4a.5.5 0 0 1 .5-.5h10a.5.5 0 0 1 0 1H3a.5.5 0 0 1-.5-.5m0-4a.5.5 0 0 1 .5-.5h10a.5.5 0 0 1 0 1H3a.5.5 0 0 1-.5-.5" />
  </symbol>

  <!-- User & People Icons -->
  <symbol id="icon-user-fill" viewBox="0 0 16 16" fill="currentColor">
    <path d="M3 14s-1 0-1-1 1-4 6-4 6 3 6 4-1 1-1 1zm5-6a3 3 0 1 0 0-6 3 3 0 0 0 0 6" />
  </symbol>

  <symbol id="icon-people" viewBox="0 0 16 16" fill="currentColor">
    <path
      d="M7 14s-1 0-1-1 1-4 5-4 5 3 5 4-1 1-1 1zm4-6a3 3 0 1 0 0-6 3 3 0 0 0 0 6m-5.784 6A2.24 2.24 0 0 1 5 13c0-1.355.68-2.75 1.936-3.72A6.3 6.3 0 0 0 5 9c-4 0-5 3-5 4s1 1 1 1zM4.5 8a2.5 2.5 0 1 0 0-5 2.5 2.5 0 0 0 0 5" />
  </symbol>

  <!-- Business Icons -->
  <symbol id="icon-building" viewBox="0 0 16 16" fill="currentColor">
    <path d="M4 2.5a.5.5 0 0 1 .5-.5h1a.5.5 0 0 1 .5.5v1a.5.5 0 0 1-.5.5h-1a.5.5 0 0 1-.5-.5zm3 0a.5.5 0 0 1 .5-.5h1a.5.5 0 0 1 .5.5v1a.5.5 0 0 1-.5.5h-1a.5.5 0 0 1-.5-.5zm3.5-.5a.5.5 0 0 0-.5.5v1a.5.5 0 0 0 .5.5h1a.5.5 0 0 0 .5-.5v-1a.5.5 0 0 0-.5-.5zM4 5.5a.5.5 0 0 1 .5-.5h1a.5.5 0 0 1 .5.5v1a.5.5 0 0 1-.5.5h-1a.5.5 0 0 1-.5-.5zM7.5 5a.5.5 0 0 0-.5.5v1a.5.5 0 0 0 .5.5h1a.5.5 0 0 0 .5-.5v-1a.5.5 0 0 0-.5-.5zm2.5.5a.5.5 0 0 1 .5-.5h1a.5.5 0 0 1 .5.5v1a.5.5 0 0 1-.5.5h-1a.5.5 0 0 1-.5-.5zM4.5 8a.5.5 0 0 0-.5.5v1a.5.5 0 0 0 .5.5h1a.5.5 0 0 0 .5-.5v-1a.5.5 0 0 0-.5-.5zm2.5.5a.5.5 0 0 1 .5-.5h1a.5.5 0 0 1 .5.5v1a.5.5 0 0 1-.5.5h-1a.5.5 0 0 1-.5-.5zm3.5-.5a.5.5 0 0 0-.5.5v1a.5.5 0 0 0 .5.5h1a.5.5 0 0 0 .5-.5v-1a.5.5 0 0 0-.5-.5z"/>
    <path d="M2 1a1 1 0 0 1 1-1h10a1 1 0 0 1 1 1v14a1 1 0 0 1-1 1H3a1 1 0 0 1-1-1zm11 0H3v14h3v-2.5a.5.5 0 0 1 .5-.5h3a.5.5 0 0 1 .5.5V15h3z"/>
  </symbol>

  <symbol id="icon-dept-fill" viewBox="0 0 16 16" fill="currentColor">
    <path
      d="M2 0a2 2 0 0 0-2 2v12a2 2 0 0 0 2 2h12a2 2 0 0 0 2-2V2a2 2 0 0 0-2-2zm.5 5h11a.5.5 0 0 1 0 1h-11a.5.5 0 0 1 0-1M4 8.5a.5.5 0 0 1 .5-.5h7a.5.5 0 0 1 0 1h-7a.5.5 0 0 1-.5-.5m2 3a.5.5 0 0 1 .5-.5h3a.5.5 0 0 1 0 1h-3a.5.5 0 0 1-.5-.5" />
  </symbol>

  <symbol id="icon-cart-fill" viewBox="0 0 16 16" fill="currentColor">
    <path
      d="M0 1.5A.5.5 0 0 1 .5 1H2a.5.5 0 0 1 .485.379L2.89 3H14.5a.5.5 0 0 1 .491.592l-1.5 8A.5.5 0 0 1 13 12H4a.5.5 0 0 1-.491-.408L2.01 3.607 1.61 2H.5a.5.5 0 0 1-.5-.5M5 12a2 2 0 1 0 0 4 2 2 0 0 0 0-4m7 0a2 2 0 1 0 0 4 2 2 0 0 0 0-4m-7 1a1 1 0 1 1 0 2 1 1 0 0 1 0-2m7 0a1 1 0 1 1 0 2 1 1 0 0 1 0-2" />
  </symbol>

  <symbol id="icon-piggy-bank" viewBox="0 0 16 16" fill="currentColor">
    <path d="M5 6.25a.75.75 0 1 1-1.5 0 .75.75 0 0 1 1.5 0m1.138-1.496A6.6 6.6 0 0 1 7.964 4.5c.666 0 1.303.097 1.893.273a.5.5 0 0 0 .286-.958A7.6 7.6 0 0 0 7.964 3.5c-.734 0-1.441.103-2.102.292a.5.5 0 1 0 .276.962"/>
    <path fill-rule="evenodd" d="M7.964 1.527c-2.977 0-5.571 1.704-6.32 4.125h-.55A1 1 0 0 0 .11 6.824l.254 1.46a1.5 1.5 0 0 0 1.478 1.243h.263c.3.513.688.978 1.145 1.382l-.729 2.477a.5.5 0 0 0 .48.641h2a.5.5 0 0 0 .471-.332l.482-1.351c.635.173 1.31.267 2.011.267.707 0 1.388-.095 2.028-.272l.543 1.372a.5.5 0 0 0 .465.316h2a.5.5 0 0 0 .478-.645l-.761-2.506C13.81 9.895 14.5 8.559 14.5 7.069q0-.218-.02-.431c.261-.11.508-.266.705-.444.315.306.815.306.815-.417 0 .223-.5.223-.461-.026a1 1 0 0 0 .09-.255.7.7 0 0 0-.202-.645.58.58 0 0 0-.707-.098.74.74 0 0 0-.375.562c-.024.243.082.48.32.654a2 2 0 0 1-.259.153c-.534-2.664-3.284-4.595-6.442-4.595M2.516 6.26c.455-2.066 2.667-3.733 5.448-3.733 3.146 0 5.536 2.114 5.536 4.542 0 1.254-.624 2.41-1.67 3.248a.5.5 0 0 0-.165.535l.66 2.175h-.985l-.59-1.487a.5.5 0 0 0-.629-.288c-.661.23-1.39.359-2.157.359a6.6 6.6 0 0 1-2.157-.359.5.5 0 0 0-.635.304l-.525 1.471h-.979l.633-2.15a.5.5 0 0 0-.17-.534 4.65 4.65 0 0 1-1.284-1.541.5.5 0 0 0-.446-.275h-.56a.5.5 0 0 1-.492-.414l-.254-1.46h.933a.5.5 0 0 0 .488-.393m12.621-.857a.6.6 0 0 1-.098.21l-.044-.025c-.146-.09-.157-.175-.152-.223a.24.24 0 0 1 .117-.173c.049-.027.08-.021.113.012a.2.2 0 0 1 .064.199"/>
  </symbol>

  <!-- Package & Inventory Icons -->
  <symbol id="icon-box" viewBox="0 0 16 16" fill="currentColor">
    <path d="M8.186 1.113a.5.5 0 0 0-.372 0L1.846 3.5l2.404.961L10.404 2zm3.564 1.426L5.596 5 8 5.961 14.154 3.5zm3.25 1.7-6.5 2.6v7.922l6.5-2.6V4.24zM7.5 14.762V6.838L1 4.239v7.923zM7.443.184a1.5 1.5 0 0 1 1.114 0l7.129 2.852A.5.5 0 0 1 16 3.5v8.662a1 1 0 0 1-.629.928l-7.185 2.874a.5.5 0 0 1-.372 0L.63 13.09a1 1 0 0 1-.63-.928V3.5a.5.5 0 0 1 .314-.464z"/>
  </symbol>

  <symbol id="icon-boxes" viewBox="0 0 16 16" fill="currentColor">
    <path d="M7.752.066a.5.5 0 0 1 .496 0l3.75 2.143a.5.5 0 0 1 .252.434v3.995l3.498 2A.5.5 0 0 1 16 9.07v4.286a.5.5 0 0 1-.252.434l-3.75 2.143a.5.5 0 0 1-.496 0l-3.502-2-3.502 2.001a.5.5 0 0 1-.496 0l-3.75-2.143A.5.5 0 0 1 0 13.357V9.071a.5.5 0 0 1 .252-.434L3.75 6.638V2.643a.5.5 0 0 1 .252-.434zM4.25 7.504 1.508 9.071l2.742 1.567 2.742-1.567zM7.5 9.933l-2.75 1.571v3.134l2.75-1.571zm1 3.134 2.75 1.571v-3.134L8.5 9.933zm.508-3.996 2.742 1.567 2.742-1.567-2.742-1.567zm2.242-2.433V3.504L8.5 5.076V8.21zM7.5 8.21V5.076L4.75 3.504v3.134zM5.258 2.643 8 4.21l2.742-1.567L8 1.076zM15 9.933l-2.75 1.571v3.134L15 13.067zM3.75 14.638v-3.134L1 9.933v3.134z"/>
  </symbol>

  <symbol id="icon-checklist" viewBox="0 0 16 16" fill="currentColor">
    <path d="M14.5 3a.5.5 0 0 1 .5.5v9a.5.5 0 0 1-.5.5h-13a.5.5 0 0 1-.5-.5v-9a.5.5 0 0 1 .5-.5zm-13-1A1.5 1.5 0 0 0 0 3.5v9A1.5 1.5 0 0 0 1.5 14h13a1.5 1.5 0 0 0 1.5-1.5v-9A1.5 1.5 0 0 0 14.5 2z"/>
    <path d="M7 5.5a.5.5 0 0 1 .5-.5h5a.5.5 0 0 1 0 1h-5a.5.5 0 0 1-.5-.5m-1.496-.854a.5.5 0 0 1 0 .708l-1.5 1.5a.5.5 0 0 1-.708 0l-.5-.5a.5.5 0 1 1 .708-.708l.146.147 1.146-1.147a.5.5 0 0 1 .708 0M7 9.5a.5.5 0 0 1 .5-.5h5a.5.5 0 0 1 0 1h-5a.5.5 0 0 1-.5-.5m-1.496-.854a.5.5 0 0 1 0 .708l-1.5 1.5a.5.5 0 0 1-.708 0l-.5-.5a.5.5 0 0 1 .708-.708l.146.147 1.146-1.147a.5.5 0 0 1 .708 0"/>
  </symbol>

  <!-- Action Icons -->
  <symbol id="icon-arrow-repeat" viewBox="0 0 16 16" fill="currentColor">
    <path
      d="M11.534 7h3.932a.25.25 0 0 1 .192.41l-1.966 2.36a.25.25 0 0 1-.384 0l-1.966-2.36a.25.25 0 0 1 .192-.41m-11 2h3.932a.25.25 0 0 0 .192-.41L2.692 6.23a.25.25 0 0 0-.384 0L.342 8.59A.25.25 0 0 0 .534 9" />
    <path fill-rule="evenodd"
      d="M8 3c-1.552 0-2.94.707-3.857 1.818a.5.5 0 1 1-.771-.636A6.002 6.002 0 0 1 13.917 7H12.9A5 5 0 0 0 8 3M3.1 9a5.002 5.002 0 0 0 8.757 2.182.5.5 0 1 1 .771.636A6.002 6.002 0 0 1 2.083 9z" />
  </symbol>

  <symbol id="icon-magic" viewBox="0 0 16 16" fill="currentColor">
    <path
      d="M9.5 2.672a.5.5 0 1 0 1 0V.843a.5.5 0 0 0-1 0zm4.5.035A.5.5 0 0 0 13.293 2L12 3.293a.5.5 0 1 0 .707.707zM7.293 4A.5.5 0 1 0 8 3.293L6.707 2A.5.5 0 0 0 6 2.707zm-.621 2.5a.5.5 0 1 0 0-1H4.843a.5.5 0 1 0 0 1zm8.485 0a.5.5 0 1 0 0-1h-1.829a.5.5 0 0 0 0 1zM13.293 10A.5.5 0 1 0 14 9.293L12.707 8a.5.5 0 1 0-.707.707zM9.5 11.157a.5.5 0 0 0 1 0V9.328a.5.5 0 0 0-1 0zm1.854-5.097a.5.5 0 0 0 0-.706l-.708-.708a.5.5 0 0 0-.707 0L8.646 5.94a.5.5 0 0 0 0 .707l.708.708a.5.5 0 0 0 .707 0l1.293-1.293Zm-3 3a.5.5 0 0 0 0-.706l-.708-.708a.5.5 0 0 0-.707 0L.646 13.94a.5.5 0 0 0 0 .707l.708.708a.5.5 0 0 0 .707 0z" />
  </symbol>

  <symbol id="icon-pen" viewBox="0 0 16 16" fill="currentColor">
    <path fill-rule="evenodd" d="M10.646.646a.5.5 0 0 1 .708 0l4 4a.5.5 0 0 1 0 .708l-1.902 1.902-.829 3.313a1.5 1.5 0 0 1-1.024 1.073L1.254 14.746 4.358 4.4A1.5 1.5 0 0 1 5.43 3.377l3.313-.828zm-1.8 2.908-3.173.793a.5.5 0 0 0-.358.342l-2.57 8.565 8.567-2.57a.5.5 0 0 0 .34-.357l.794-3.174-3.6-3.6z"/>
    <path fill-rule="evenodd" d="M2.832 13.228 8 9a1 1 0 1 0-1-1l-4.228 5.168-.026.086z"/>
  </symbol>

  <symbol id="icon-usb" viewBox="0 0 16 16" fill="currentColor">
    <path d="M6 .5a.5.5 0 0 1 .5-.5h4a.5.5 0 0 1 .5.5v4H6zM7 1v1h1V1zm2 0v1h1V1zM6 5a1 1 0 0 0-1 1v8.5A1.5 1.5 0 0 0 6.5 16h4a1.5 1.5 0 0 0 1.5-1.5V6a1 1 0 0 0-1-1zm0 1h5v8.5a.5.5 0 0 1-.5.5h-4a.5.5 0 0 1-.5-.5z"/>
  </symbol>

  <!-- Communication Icons -->
  <symbol id="icon-chat-square" viewBox="0 0 16 16" fill="currentColor">
    <path d="M0 2a2 2 0 0 1 2-2h12a2 2 0 0 1 2 2v8a2 2 0 0 1-2 2h-2.5a1 1 0 0 0-.8.4l-1.9 2.533a1 1 0 0 1-1.6 0L5.3 12.4a1 1 0 0 0-.8-.4H2a2 2 0 0 1-2-2zm5 4a1 1 0 1 0-2 0 1 1 0 0 0 2 0m4 0a1 1 0 1 0-2 0 1 1 0 0 0 2 0m3 1a1 1 0 1 0 0-2 1 1 0 0 0 0 2"/>
  </symbol>

  <!-- Connection & Status Icons -->
  <symbol id="icon-wifi" viewBox="0 0 16 16" fill="currentColor">
    <path d="M15.384 6.115a.485.485 0 0 0-.047-.736A12.44 12.44 0 0 0 8 3C5.259 3 2.723 3.882.663 5.379a.485.485 0 0 0-.048.736.52.52 0 0 0 .668.05A11.45 11.45 0 0 1 8 4c2.507 0 4.827.802 6.716 2.164.205.148.49.13.668-.049"/>
    <path d="M13.229 8.271a.482.482 0 0 0-.063-.745A9.46 9.46 0 0 0 8 6c-1.905 0-3.68.56-5.166 1.526a.48.48 0 0 0-.063.745.525.525 0 0 0 .652.065A8.46 8.46 0 0 1 8 7a8.46 8.46 0 0 1 4.576 1.336c.206.132.48.108.653-.065m-2.183 2.183c.226-.226.185-.605-.1-.75A6.5 6.5 0 0 0 8 9c-1.06 0-2.062.254-2.946.704-.285.145-.326.524-.1.75l.015.015c.16.16.407.19.611.09A5.5 5.5 0 0 1 8 10c.868 0 1.69.201 2.42.56.203.1.45.07.61-.091zM9.06 12.44c.196-.196.198-.52-.04-.66A2 2 0 0 0 8 11.5a2 2 0 0 0-1.02.28c-.238.14-.236.464-.04.66l.706.706a.5.5 0 0 0 .707 0l.707-.707z"/>
  </symbol>

  <symbol id="icon-circle-fill" viewBox="0 0 16 16" fill="currentColor">
    <circle cx="8" cy="8" r="8"/>
  </symbol>

</svg>
